<svg xmlns="http://www.w3.org/2000/svg" xmlns:xlink="http://www.w3.org/1999/xlink" width="176" height="104" viewBox="0 0 176 104">
    <defs>
        <path id="a" d="M.136 0H15.42v104H.136z"/>
        <path id="c" d="M.58 0h15.284v104H.58z"/>
        <path id="e" d="M.025 0h15.283v104H.025z"/>
        <path id="g" d="M.692 0h15.283v104H.692z"/>
    </defs>
    <g fill="none" fill-rule="evenodd">
        <g transform="translate(57)">
            <mask id="b" fill="#fff">
                <use xlink:href="#a"/>
            </mask>
            <path fill="#E0A445" d="M15.42 96.283c0 4.262-3.422 7.717-7.643 7.717-4.22 0-7.64-3.455-7.64-7.717V7.717C.136 3.455 3.556 0 7.776 0c4.221 0 7.642 3.455 7.642 7.717v88.566z" mask="url(#b)"/>
        </g>
        <path fill="#EAE6CA" d="M64.778 14.275c10.125 0 18.333 8.289 18.333 18.515s-8.208 18.515-18.333 18.515c-10.125 0-18.333-8.29-18.333-18.515 0-10.226 8.208-18.515 18.333-18.515"/>
        <path fill="#E0A445" d="M64.778 25.215c4.142 0 7.5 3.391 7.5 7.574 0 4.184-3.358 7.575-7.5 7.575-4.142 0-7.5-3.39-7.5-7.575 0-4.183 3.358-7.574 7.5-7.574"/>
        <g transform="translate(103)">
            <mask id="d" fill="#fff">
                <use xlink:href="#c"/>
            </mask>
            <path fill="#8DCF91" d="M15.864 96.283c0 4.262-3.421 7.717-7.642 7.717-4.22 0-7.641-3.455-7.641-7.717V7.717C.58 3.455 4 0 8.22 0c4.222 0 7.643 3.455 7.643 7.717v88.566z" mask="url(#d)"/>
        </g>
        <path fill="#EAE6CA" d="M111.222 48.463c10.125 0 18.333 8.29 18.333 18.515 0 10.225-8.208 18.515-18.333 18.515-10.125 0-18.333-8.29-18.333-18.515 0-10.226 8.208-18.515 18.333-18.515"/>
        <path fill="#8DCF91" d="M111.222 59.404c4.142 0 7.5 3.39 7.5 7.574 0 4.184-3.358 7.575-7.5 7.575-4.142 0-7.5-3.391-7.5-7.575 0-4.183 3.358-7.574 7.5-7.574"/>
        <g transform="translate(150)">
            <mask id="f" fill="#fff">
                <use xlink:href="#e"/>
            </mask>
            <path fill="#E36B4B" d="M15.308 96.283c0 4.262-3.42 7.717-7.642 7.717-4.22 0-7.64-3.455-7.64-7.717V7.717C.025 3.455 3.445 0 7.665 0c4.221 0 7.642 3.455 7.642 7.717v88.566z" mask="url(#f)"/>
        </g>
        <path fill="#EAE6CA" d="M157.667 15.513c10.125 0 18.333 8.289 18.333 18.515 0 10.225-8.208 18.515-18.333 18.515-10.125 0-18.334-8.29-18.334-18.515 0-10.226 8.209-18.515 18.334-18.515"/>
        <path fill="#E36B4B" d="M157.667 26.453c4.142 0 7.5 3.391 7.5 7.574 0 4.184-3.358 7.575-7.5 7.575-4.143 0-7.5-3.39-7.5-7.575 0-4.183 3.357-7.574 7.5-7.574"/>
        <g transform="translate(10)">
            <mask id="h" fill="#fff">
                <use xlink:href="#g"/>
            </mask>
            <path fill="#8DCF91" d="M15.975 96.283c0 4.262-3.42 7.717-7.642 7.717-4.22 0-7.64-3.455-7.64-7.717V7.717C.692 3.455 4.112 0 8.332 0c4.221 0 7.642 3.455 7.642 7.717v88.566z" mask="url(#h)"/>
        </g>
        <path fill="#EAE6CA" d="M18.334 56.038c10.125 0 18.332 8.288 18.332 18.514 0 10.226-8.207 18.515-18.332 18.515S0 84.78 0 74.553C0 64.325 8.21 56.037 18.334 56.037"/>
        <path fill="#8DCF91" d="M18.334 66.978c4.142 0 7.5 3.391 7.5 7.574s-3.358 7.575-7.5 7.575c-4.143 0-7.5-3.392-7.5-7.575s3.357-7.574 7.5-7.574"/>
    </g>
</svg>
