<svg xmlns="http://www.w3.org/2000/svg" xmlns:xlink="http://www.w3.org/1999/xlink" width="176" height="104" viewBox="0 0 176 104">
    <defs>
        <path id="a" d="M0 .928h15.274V43.34H0z"/>
        <path id="c" d="M.787.236h102.667v103.009H.787z"/>
        <path id="e" d="M.933 31.23c0 17.177 13.834 31.101 30.899 31.101S62.731 48.407 62.731 31.23C62.731 14.055 48.897.131 31.832.131S.933 14.055.933 31.23z"/>
        <path id="g" d="M.933 31.23c0 17.177 13.834 31.101 30.899 31.101S62.731 48.407 62.731 31.23C62.731 14.055 48.897.131 31.832.131S.933 14.055.933 31.23z"/>
    </defs>
    <g fill="none" fill-rule="evenodd">
        <g transform="translate(0 59.429)">
            <mask id="b" fill="#fff">
                <use xlink:href="#a"/>
            </mask>
            <path fill="#E0A445" d="M15.274 35.726c0 4.204-3.42 7.613-7.637 7.613C3.419 43.34 0 39.93 0 35.726V8.542C0 4.337 3.419.928 7.637.928s7.637 3.409 7.637 7.614v27.184z" mask="url(#b)"/>
        </g>
        <path fill="#8DCF91" d="M42.061 95.153c0 4.204-3.419 7.613-7.637 7.613-4.217 0-7.637-3.409-7.637-7.613V31.26c0-4.205 3.42-7.613 7.637-7.613 4.218 0 7.637 3.408 7.637 7.613v63.892z"/>
        <path fill="#E0A445" d="M68.849 95.152c0 4.204-3.42 7.614-7.637 7.614-4.218 0-7.637-3.41-7.637-7.614V7.88c0-4.206 3.419-7.614 7.637-7.614s7.637 3.408 7.637 7.614v87.27z"/>
        <path fill="#8DCF91" d="M95.637 95.152c0 4.204-3.419 7.614-7.637 7.614-4.217 0-7.637-3.41-7.637-7.614V33.949c0-4.204 3.42-7.614 7.637-7.614 4.218 0 7.637 3.41 7.637 7.614v61.203z"/>
        <path fill="#E0A445" d="M122.425 95.153c0 4.204-3.42 7.613-7.637 7.613-4.218 0-7.637-3.409-7.637-7.613V51.73c0-4.205 3.419-7.614 7.637-7.614s7.637 3.409 7.637 7.614v43.423z"/>
        <path fill="#8DCF91" d="M149.212 95.152c0 4.204-3.42 7.614-7.637 7.614-4.218 0-7.637-3.41-7.637-7.614V37.656c0-4.206 3.419-7.614 7.637-7.614s7.637 3.408 7.637 7.614v57.496z"/>
        <path fill="#E0A445" d="M176 95.15c0 4.205-3.419 7.615-7.637 7.615s-7.637-3.41-7.637-7.614V33.948c0-4.204 3.419-7.613 7.637-7.613S176 29.744 176 33.948v61.203z"/>
        <g transform="translate(26)">
            <mask id="d" fill="#fff">
                <use xlink:href="#c"/>
            </mask>
            <path fill="#E36B4B" d="M60.7.235c-23.613 0-42.755 19.083-42.755 42.623 0 9.19 2.926 17.691 7.887 24.652L2.415 90.855c-2.484 2.476-2.08 6.894.903 9.867 1.67 1.664 3.791 2.523 5.772 2.523 1.56 0 3.031-.532 4.125-1.623l23.528-23.456A42.646 42.646 0 0 0 60.7 85.482c23.613 0 42.755-19.083 42.755-42.624C103.454 19.318 84.312.235 60.7.235m0 11.873c17.008 0 30.845 13.795 30.845 30.75S77.707 73.608 60.7 73.608c-6.197 0-12.17-1.823-17.273-5.27l-4.619-3.12-3.266-4.584a30.461 30.461 0 0 1-5.687-17.776c0-16.955 13.837-30.75 30.845-30.75" mask="url(#d)"/>
        </g>
        <path fill="#EAE6CA" d="M117.73 42.819c0 17.012-13.833 30.804-30.898 30.804-17.064 0-30.898-13.792-30.898-30.804 0-17.013 13.834-30.804 30.898-30.804 17.065 0 30.899 13.791 30.899 30.804"/>
        <g>
            <g transform="translate(55 12)">
                <mask id="f" fill="#fff">
                    <use xlink:href="#e"/>
                </mask>
                <path fill="#E0A445" d="M26.294 92.876c0 5.039-4.058 9.123-9.064 9.123s-9.064-4.084-9.064-9.123V19.538c0-5.038 4.058-9.123 9.064-9.123s9.064 4.085 9.064 9.123v73.338z" mask="url(#f)"/>
            </g>
            <g transform="translate(55 12)">
                <mask id="h" fill="#fff">
                    <use xlink:href="#g"/>
                </mask>
                <path fill="#8DCF91" d="M58.088 92.877c0 5.039-4.058 9.123-9.064 9.123s-9.064-4.084-9.064-9.123V40.844c0-5.038 4.058-9.123 9.064-9.123s9.064 4.085 9.064 9.123v52.033z" mask="url(#h)"/>
            </g>
        </g>
    </g>
</svg>
