<svg xmlns="http://www.w3.org/2000/svg" xmlns:xlink="http://www.w3.org/1999/xlink" width="176" height="104" viewBox="0 0 176 104">
    <defs>
        <path id="a" d="M.128 0H174v104H.128z"/>
    </defs>
    <g fill="none" fill-rule="evenodd">
        <path fill="#E36B4B" d="M168.575 56.61H7.211c-3.983 0-7.21-3.262-7.21-7.285C0 45.3 3.227 42.04 7.21 42.04h161.364c3.983 0 7.212 3.26 7.212 7.285 0 4.023-3.229 7.285-7.212 7.285"/>
        <g transform="translate(2)">
            <mask id="b" fill="#fff">
                <use xlink:href="#a"/>
            </mask>
            <path fill="#E0A445" d="M165.99.07a7.526 7.526 0 0 0-.977-.07c-.33 0-.654.029-.976.07H141.61c-4.159 0-7.543 3.409-7.543 7.598 0 4.19 3.385 7.599 7.543 7.599h5.166L94.867 67.703 64.151 36.676 2.724 90.623a7.603 7.603 0 0 0-2.578 5.222 7.621 7.621 0 0 0 1.835 5.533A7.512 7.512 0 0 0 7.678 104a7.497 7.497 0 0 0 4.949-1.87L63.43 57.51l31.436 31.756 64.049-64.7v7.25c0 4.189 3.383 7.597 7.542 7.597S174 36.005 174 31.816V.07h-8.01z" mask="url(#b)"/>
        </g>
        <path fill="#E36B4B" d="M102.203 73.094L71.128 41.703a7.46 7.46 0 0 0-5.337-2.233 7.457 7.457 0 0 0-5.336 2.233c-2.942 2.972-2.942 7.809 0 10.78L91.53 83.876a7.46 7.46 0 0 0 5.337 2.233 7.457 7.457 0 0 0 5.336-2.233c2.942-2.972 2.942-7.81 0-10.781"/>
        <path fill="#8DCF91" d="M71.487 42.092a7.464 7.464 0 0 0-5.17-2.603 7.441 7.441 0 0 0-5.476 1.852L4.724 90.623a7.605 7.605 0 0 0-2.577 5.221 7.621 7.621 0 0 0 1.834 5.534 7.509 7.509 0 0 0 5.697 2.621 7.497 7.497 0 0 0 4.949-1.87l56.117-49.283c3.14-2.757 3.473-7.582.743-10.754"/>
        <path fill="#EAE6CA" d="M65.791 35.38c7.625 0 13.805 6.243 13.805 13.944 0 7.703-6.18 13.947-13.805 13.947-7.624 0-13.805-6.245-13.805-13.947 0-7.7 6.181-13.944 13.805-13.944"/>
        <path fill="#8DCF91" d="M65.791 43.62c3.12 0 5.647 2.554 5.647 5.705 0 3.15-2.528 5.705-5.647 5.705s-5.647-2.554-5.647-5.705c0-3.151 2.528-5.705 5.647-5.705"/>
        <path fill="#EAE6CA" d="M96.867 64.539c7.624 0 13.804 6.244 13.804 13.945 0 7.702-6.18 13.946-13.805 13.946-7.623 0-13.805-6.244-13.805-13.946 0-7.701 6.181-13.945 13.805-13.945"/>
        <path fill="#E36B4B" d="M96.867 72.78c3.118 0 5.646 2.553 5.646 5.704s-2.528 5.705-5.647 5.705c-3.118 0-5.647-2.554-5.647-5.705 0-3.15 2.529-5.705 5.648-5.705"/>
    </g>
</svg>
